<?xml version="1.0" encoding="UTF-8"?>
<svg id="Layer_1" data-name="Layer 1" xmlns="http://www.w3.org/2000/svg" viewBox="0 0 200 200">
  <defs>
    <style>
      .cls-1 {
        stroke-linecap: round;
        stroke-width: .75px;
      }

      .cls-1, .cls-2 {
        fill: none;
        stroke: #000;
        stroke-linejoin: round;
      }

      .cls-3 {
        fill: #75777c;
      }

      .cls-4 {
        fill: #565b66;
      }

      .cls-2 {
        stroke-width: 1.5px;
      }

      .cls-5 {
        fill: #3c3f47;
      }

      .cls-6 {
        fill: #383e49;
      }

      .cls-7 {
        fill: #25cccc;
      }
    </style>
  </defs>
  <g>
    <rect class="cls-4" x="63.33" y="115.23" width="108.03" height="29.73"/>
    <rect class="cls-4" x="171.36" y="118.14" width="13.64" height="23.9"/>
    <path class="cls-4" d="m63.33,118.14v23.9h-10.41c-4.53,0-9.06-.26-13.53-.96-25.78-4-24.38-17.28-24.38-17.28h37.82l1.3-5.67h9.19Z"/>
    <g>
      <rect class="cls-4" x="70.83" y="179.36" width="33.25" height="9.96"/>
      <rect class="cls-4" x="133.12" y="179.36" width="33.25" height="9.96"/>
      <path class="cls-5" d="m115.45,163.73h6.3c6.28,0,11.37,5.09,11.37,11.37v10.89h-29.04v-10.89c0-6.28,5.09-11.37,11.37-11.37Z"/>
    </g>
    <path class="cls-4" d="m165.12,144.96c-8.01,1.98-13.94,9.22-13.94,17.84,0,7.3,4.26,13.6,10.43,16.56h-86.01c6.17-2.96,10.43-9.27,10.43-16.56,0-8.62-5.94-15.86-13.94-17.84"/>
    <line class="cls-1" x1="63.81" y1="117.9" x2="63.81" y2="142.29"/>
    <line class="cls-1" x1="170.88" y1="142.05" x2="170.88" y2="118.14"/>
    <path class="cls-2" d="m63.33,118.14h-9.19l-1.3,5.67H15.01s-1.4,13.28,24.38,17.28c4.47.69,9.01.96,13.53.96h10.41v2.91h108.03v-2.91h13.64v-23.9h-13.64v-2.91H63.33v2.91Z"/>
    <path class="cls-2" d="m75.59,179.36c6.17-2.96,10.43-9.27,10.43-16.56,0-8.62-5.94-15.86-13.94-17.84"/>
    <line class="cls-1" x1="162.38" y1="179.84" x2="75.59" y2="179.84"/>
    <path class="cls-2" d="m165.12,144.96c-8.01,1.98-13.94,9.22-13.94,17.84,0,7.3,4.26,13.6,10.43,16.56h4.76s0,9.96,0,9.96h-33.25v-3.33h-29.04v3.33h-33.25v-9.96h4.76"/>
    <path class="cls-1" d="m133.55,186.32v-7.97c0-8.26-6.69-14.95-14.95-14.95h0c-8.26,0-14.95,6.69-14.95,14.95v7.4"/>
  </g>
  <g>
    <path class="cls-7" d="m169.48,97.29c-2.15,3.32-5.02,5.57-7.11,6.91-1.43.91-3.32.47-4.19-.98-1.65-2.75-4.52-7.16-7.5-9.96-4.59-4.32-17.28-16.47-24.84-27.72-7.56-11.25-16.71-18.57-16.71-18.57l11.31-8.88s2.52,3.33,7.02,8.88,22.14,21.63,27,29.76c3.7,6.19,11.19,13.57,14.56,16.75,1.05.99,1.25,2.6.46,3.81Z"/>
    <path class="cls-2" d="m169.48,97.29c-2.15,3.32-5.02,5.57-7.11,6.91-1.43.91-3.32.47-4.19-.98-1.65-2.75-4.52-7.16-7.5-9.96-4.59-4.32-17.28-16.47-24.84-27.72-7.56-11.25-16.71-18.57-16.71-18.57l11.31-8.88s2.52,3.33,7.02,8.88,22.14,21.63,27,29.76c3.7,6.19,11.19,13.57,14.56,16.75,1.05.99,1.25,2.6.46,3.81Z"/>
    <path class="cls-6" d="m94.67,61.19s-6.3-.33-11.52-2.34c-4.66-4.08-8.33-7.85-10.66-12.06,0,0,5.26-.96,11.32-.36,0,0,7.92,7.86,10.86,14.76Z"/>
    <path class="cls-3" d="m114.95,18.74c-8.91,7.65-31.14,27.69-31.14,27.69-6.06-.6-11.32.36-11.32.36,0,0,18.61-17.61,31.84-27.6l10.62-.45Z"/>
    <path class="cls-3" d="m133.49,10.69l-18.54,8.05-10.62.45,17.23-6.67c2.3-.88,4.72-1.41,7.18-1.55l4.75-.28Z"/>
    <path class="cls-4" d="m136.91,16.43c-2.66,4.27-6.22,10.22-9.32,16.16l-32.92,28.6c-2.94-6.9-10.86-14.76-10.86-14.76,0,0,22.23-20.04,31.14-27.69l18.54-8.05c3.05-.18,5.04,3.15,3.42,5.74Z"/>
    <g>
      <path d="m155.63,92.39c.45,1.05,1.09,2.01,1.96,2.69.98.72,1.45,1.86,2.13,2.72,1.42,1.7,3.31,3.3,3.83,5.6-.92-2.2-2.75-3.53-4.23-5.3-.72-.94-1.14-2.01-1.97-2.72-.89-.79-1.46-1.86-1.71-2.98h0Z"/>
      <path d="m166.39,101.13c-2.48-1.5-4.27-3.89-5.35-6.52-1.11-2.59-2.57-5.03-4.75-6.87,2.23,1.77,3.79,4.2,4.97,6.76,1.12,2.53,2.95,4.82,5.36,6.18.31.14.06.62-.23.44h0Z"/>
      <path d="m162.83,92.15c1.11,1.13,2.73,1.32,3.91,2.3,1.16,1.08,1.67,2.66,1.78,4.19-.48-1.38-1.04-2.83-2.12-3.82-1.15-.92-2.78-1.3-3.58-2.67h0Z"/>
      <path d="m133.38,69c1.63,4.21,5.97,6.57,9.65,8.79,3.81,2.3,7.4,5.59,8.78,9.94.01.03-.03.05-.05.02-1.95-4.06-5.28-7.13-8.89-9.73-3.4-2.45-8.86-4.41-9.5-9.02h0Z"/>
      <path d="m132.18,59.37c3.78,1.74,6.89,4.54,9.81,7.45,2.91,3.03,3.89,7.22,6.16,10.67.02.02-.02.05-.04.03-2.77-3.09-3.74-7.33-6.32-10.52-2.58-3.17-6.56-5.17-9.6-7.63h0Z"/>
      <path d="m128.09,57.78c1.76,5.59,7.97,7.69,10.92,12.47-3.45-4.3-9.8-6.59-10.92-12.47h0Z"/>
      <path d="m113.83,47.27c6.42,3.07,9.29,10.05,13.77,15.16-5.02-4.69-7.74-11.53-13.77-15.16h0Z"/>
      <path d="m119.43,44.65c1.69,2.18,3.83,3.95,6.14,5.43,2.29,1.56,3.89,4.12,6.02,5.67-2.67-1.02-4.11-3.67-6.19-5.46-2-1.72-5.2-2.98-5.97-5.65h0Z"/>
    </g>
    <path class="cls-1" d="m72.49,46.79s5.26-.96,11.32-.36c0,0,7.92,7.86,10.86,14.76"/>
    <path class="cls-2" d="m136.91,16.43c-2.66,4.27-6.22,10.22-9.32,16.16l-32.92,28.6s-6.3-.33-11.52-2.34c-4.66-4.08-8.33-7.85-10.66-12.06,0,0,18.61-17.61,31.84-27.6l17.23-6.67c2.3-.88,4.72-1.41,7.18-1.55l4.75-.28c3.05-.18,5.04,3.15,3.42,5.74Z"/>
    <path class="cls-1" d="m104.33,19.19l10.62-.45c-8.91,7.65-31.14,27.69-31.14,27.69"/>
    <line class="cls-1" x1="114.95" y1="18.74" x2="133.49" y2="10.68"/>
  </g>
</svg>