<svg width="177" height="24" viewBox="0 0 177 24" fill="none" xmlns="http://www.w3.org/2000/svg">
    <path d="M3.98569 16.083V8.06531H0V20.0687H12.0034V16.083H3.98569Z" fill="#0094FF" />
    <path
        d="M19.9748 0.046875H0V6.07176H3.98569V4.07891H15.9891V16.0823H13.9963V20.068H19.9748V0.046875Z"
        fill="#003778" />
    <path d="M24.0117 0H30.1756V14.9232H39.0739V20.0675H24.0117V0Z" fill="#003778" />
    <path d="M43.0117 0H58.5374V5.14432H49.222V7.64697H57.2397V12.4205H49.222V20.0675H43.0117V0Z"
        fill="#003778" />
    <path
        d="M67.664 9.40862L61.083 0.046875H68.3128L71.3253 5.46927L74.2914 0.046875H81.1041L74.7085 9.45496L81.8456 20.0217H74.4304L71.0472 14.0895L67.5249 20.068H60.4805L67.664 9.40862Z"
        fill="#0094FF" />
    <path
        d="M174.956 10.2744C174.94 9.80886 174.843 9.40751 174.667 9.07037C174.49 8.71719 174.249 8.42821 173.944 8.20346C173.655 7.9787 173.318 7.81816 172.933 7.72184C172.548 7.60946 172.138 7.55327 171.705 7.55327C171.368 7.55327 171.023 7.59341 170.669 7.67368C170.332 7.73789 170.019 7.8583 169.73 8.03489C169.441 8.19543 169.208 8.41216 169.032 8.68508C168.855 8.958 168.767 9.29513 168.767 9.69648C168.767 10.0336 168.847 10.3226 169.008 10.5634C169.184 10.7882 169.401 10.9808 169.658 11.1413C169.915 11.3019 170.196 11.4383 170.501 11.5507C170.806 11.647 171.087 11.7273 171.344 11.7915L173.366 12.2491C173.8 12.3133 174.225 12.4337 174.643 12.6103C175.076 12.7708 175.453 12.9876 175.775 13.2605C176.112 13.5334 176.385 13.8705 176.593 14.2719C176.802 14.6732 176.906 15.1468 176.906 15.6927C176.906 16.3669 176.754 16.9449 176.449 17.4265C176.144 17.8921 175.75 18.2773 175.269 18.5824C174.803 18.8713 174.273 19.08 173.679 19.2085C173.085 19.3369 172.5 19.4011 171.922 19.4011C170.461 19.4011 169.273 19.056 168.358 18.3656C167.459 17.6753 166.945 16.5676 166.816 15.0425H168.334C168.398 16.0699 168.767 16.8485 169.441 17.3783C170.132 17.8921 170.982 18.1489 171.994 18.1489C172.363 18.1489 172.74 18.1088 173.126 18.0285C173.527 17.9482 173.896 17.8118 174.233 17.6191C174.57 17.4265 174.843 17.1857 175.052 16.8967C175.277 16.5917 175.389 16.2224 175.389 15.789C175.389 15.4197 175.309 15.1147 175.148 14.8739C175.004 14.617 174.803 14.4083 174.546 14.2478C174.29 14.0712 173.993 13.9267 173.655 13.8143C173.334 13.702 173.005 13.6056 172.668 13.5254L170.718 13.0919C170.22 12.9635 169.762 12.819 169.345 12.6584C168.928 12.4819 168.558 12.2731 168.237 12.0323C167.932 11.7755 167.691 11.4704 167.515 11.1173C167.338 10.748 167.25 10.2985 167.25 9.76872C167.25 9.14262 167.386 8.60481 167.659 8.1553C167.948 7.70578 168.317 7.34457 168.767 7.07165C169.216 6.79873 169.714 6.59806 170.26 6.46963C170.822 6.34119 171.376 6.27698 171.922 6.27698C172.548 6.27698 173.126 6.35725 173.655 6.51779C174.201 6.67833 174.675 6.92716 175.076 7.2643C175.494 7.60143 175.823 8.01884 176.064 8.51651C176.304 9.01419 176.441 9.60016 176.473 10.2744H174.956Z"
        fill="#003778" />
    <path
        d="M162.804 6.63966H165.332V7.91595H162.804V16.2961C162.804 16.7938 162.868 17.1871 162.996 17.4761C163.141 17.749 163.486 17.9015 164.032 17.9337C164.465 17.9337 164.899 17.9096 165.332 17.8614V19.1377C165.107 19.1377 164.883 19.1457 164.658 19.1618C164.433 19.1778 164.208 19.1859 163.984 19.1859C162.972 19.1859 162.266 18.9932 161.864 18.6079C161.463 18.2066 161.27 17.4761 161.286 16.4166V7.91595H159.119V6.63966H161.286V2.9071H162.804V6.63966Z"
        fill="#003778" />
    <path
        d="M147.432 1.87061H148.949V8.78186H148.997C149.286 8.02732 149.8 7.42529 150.538 6.97578C151.277 6.51021 152.087 6.27743 152.97 6.27743C153.837 6.27743 154.56 6.38981 155.138 6.61457C155.732 6.83932 156.205 7.1604 156.558 7.57781C156.912 7.97916 157.16 8.47683 157.305 9.07083C157.449 9.66483 157.522 10.3311 157.522 11.0696V19.0644H156.004V11.3104C156.004 10.7806 155.956 10.2909 155.86 9.84142C155.764 9.37585 155.595 8.9745 155.354 8.63737C155.113 8.30024 154.784 8.03535 154.367 7.8427C153.966 7.65005 153.46 7.55373 152.85 7.55373C152.24 7.55373 151.694 7.6661 151.212 7.89086C150.747 8.09956 150.345 8.39656 150.008 8.78186C149.687 9.1511 149.43 9.60061 149.238 10.1304C149.061 10.6441 148.965 11.206 148.949 11.8161V19.0644H147.432V1.87061Z"
        fill="#003778" />
    <path
        d="M144.577 18.0526C144.577 18.9677 144.472 19.7945 144.264 20.5329C144.071 21.2714 143.758 21.8975 143.324 22.4113C142.891 22.925 142.321 23.3183 141.615 23.5912C140.924 23.8641 140.073 24.0006 139.062 24.0006C138.436 24.0006 137.826 23.9284 137.232 23.7839C136.638 23.6394 136.1 23.4146 135.618 23.1096C135.153 22.8046 134.76 22.4113 134.438 21.9296C134.133 21.4641 133.957 20.9022 133.909 20.244H135.426C135.506 20.7095 135.659 21.0948 135.883 21.3999C136.124 21.7209 136.405 21.9778 136.726 22.1704C137.063 22.3631 137.433 22.4996 137.834 22.5798C138.235 22.6761 138.645 22.7243 139.062 22.7243C140.475 22.7243 141.494 22.323 142.12 21.5203C142.746 20.7176 143.059 19.5617 143.059 18.0526V16.3669H143.011C142.658 17.1375 142.136 17.7556 141.446 18.2212C140.772 18.6867 139.977 18.9195 139.062 18.9195C138.067 18.9195 137.216 18.759 136.509 18.4379C135.803 18.1008 135.217 17.6432 134.752 17.0653C134.302 16.4873 133.973 15.8131 133.764 15.0425C133.556 14.2558 133.451 13.421 133.451 12.538C133.451 11.6872 133.572 10.8845 133.812 10.1299C134.069 9.35935 134.43 8.69311 134.896 8.13122C135.378 7.55327 135.964 7.10376 136.654 6.78268C137.36 6.44554 138.163 6.27698 139.062 6.27698C139.528 6.27698 139.961 6.34119 140.362 6.46963C140.78 6.59806 141.157 6.78268 141.494 7.02349C141.831 7.24825 142.128 7.51314 142.385 7.81816C142.658 8.12319 142.867 8.44427 143.011 8.7814H143.059V6.63819H144.577V18.0526ZM139.062 17.6432C139.72 17.6432 140.298 17.5068 140.796 17.2338C141.294 16.9449 141.711 16.5756 142.048 16.1261C142.385 15.6605 142.634 15.1308 142.795 14.5368C142.971 13.9428 143.059 13.3327 143.059 12.7066C143.059 12.0966 142.987 11.4865 142.843 10.8765C142.698 10.2664 142.465 9.71254 142.144 9.21486C141.823 8.71719 141.406 8.31584 140.892 8.01081C140.395 7.70578 139.784 7.55327 139.062 7.55327C138.34 7.55327 137.722 7.70578 137.208 8.01081C136.694 8.29978 136.269 8.68508 135.932 9.1667C135.594 9.64832 135.346 10.2022 135.185 10.8283C135.041 11.4383 134.968 12.0644 134.968 12.7066C134.968 13.3327 135.049 13.9428 135.209 14.5368C135.37 15.1308 135.618 15.6605 135.956 16.1261C136.293 16.5756 136.718 16.9449 137.232 17.2338C137.746 17.5068 138.356 17.6432 139.062 17.6432Z"
        fill="#003778" />
    <path
        d="M129.66 1.87061H131.177V4.30279H129.66V1.87061ZM129.66 6.63865H131.177V19.0644H129.66V6.63865Z"
        fill="#003778" />
    <path
        d="M125.487 10.2744C125.471 9.80886 125.375 9.40751 125.198 9.07037C125.021 8.71719 124.781 8.42821 124.476 8.20346C124.187 7.9787 123.85 7.81816 123.464 7.72184C123.079 7.60946 122.67 7.55327 122.236 7.55327C121.899 7.55327 121.554 7.59341 121.201 7.67368C120.863 7.73789 120.55 7.8583 120.261 8.03489C119.972 8.19543 119.74 8.41216 119.563 8.68508C119.387 8.958 119.298 9.29513 119.298 9.69648C119.298 10.0336 119.378 10.3226 119.539 10.5634C119.716 10.7882 119.932 10.9808 120.189 11.1413C120.446 11.3019 120.727 11.4383 121.032 11.5507C121.337 11.647 121.618 11.7273 121.875 11.7915L123.898 12.2491C124.331 12.3133 124.757 12.4337 125.174 12.6103C125.607 12.7708 125.985 12.9876 126.306 13.2605C126.643 13.5334 126.916 13.8705 127.125 14.2719C127.333 14.6732 127.438 15.1468 127.438 15.6927C127.438 16.3669 127.285 16.9449 126.98 17.4265C126.675 17.8921 126.282 18.2773 125.8 18.5824C125.335 18.8713 124.805 19.08 124.211 19.2085C123.617 19.3369 123.031 19.4011 122.453 19.4011C120.992 19.4011 119.804 19.056 118.889 18.3656C117.99 17.6753 117.476 16.5676 117.348 15.0425H118.865C118.929 16.0699 119.298 16.8485 119.972 17.3783C120.663 17.8921 121.514 18.1489 122.525 18.1489C122.894 18.1489 123.272 18.1088 123.657 18.0285C124.058 17.9482 124.427 17.8118 124.765 17.6191C125.102 17.4265 125.375 17.1857 125.583 16.8967C125.808 16.5917 125.92 16.2224 125.92 15.789C125.92 15.4197 125.84 15.1147 125.68 14.8739C125.535 14.617 125.335 14.4083 125.078 14.2478C124.821 14.0712 124.524 13.9267 124.187 13.8143C123.866 13.702 123.536 13.6056 123.199 13.5254L121.249 13.0919C120.751 12.9635 120.294 12.819 119.876 12.6584C119.459 12.4819 119.09 12.2731 118.768 12.0323C118.463 11.7755 118.223 11.4704 118.046 11.1173C117.869 10.748 117.781 10.2985 117.781 9.76872C117.781 9.14262 117.918 8.60481 118.19 8.1553C118.479 7.70578 118.849 7.34457 119.298 7.07165C119.748 6.79873 120.245 6.59806 120.791 6.46963C121.353 6.34119 121.907 6.27698 122.453 6.27698C123.079 6.27698 123.657 6.35725 124.187 6.51779C124.733 6.67833 125.206 6.92716 125.607 7.2643C126.025 7.60143 126.354 8.01884 126.595 8.51651C126.836 9.01419 126.972 9.60016 127.004 10.2744H125.487Z"
        fill="#003778" />
    <path
        d="M105.086 6.63819H106.603V8.7814H106.651C106.94 8.02686 107.454 7.42484 108.192 6.97533C108.931 6.50976 109.742 6.27698 110.625 6.27698C111.491 6.27698 112.214 6.38936 112.792 6.61411C113.386 6.83887 113.859 7.15995 114.213 7.57735C114.566 7.9787 114.815 8.47638 114.959 9.07037C115.104 9.66437 115.176 10.3306 115.176 11.0691V19.064H113.659V11.3099C113.659 10.7801 113.611 10.2905 113.514 9.84097C113.418 9.3754 113.249 8.97405 113.009 8.63692C112.768 8.29978 112.439 8.03489 112.021 7.84224C111.62 7.6496 111.114 7.55327 110.504 7.55327C109.894 7.55327 109.348 7.66565 108.867 7.89041C108.401 8.09911 108 8.39611 107.663 8.7814C107.342 9.15065 107.085 9.60016 106.892 10.1299C106.715 10.6437 106.619 11.2056 106.603 11.8156V19.064H105.086V6.63819Z"
        fill="#003778" />
    <path d="M100.18 1.87061H101.817V19.0644H100.18V1.87061Z" fill="#003778" />
    <path fill-rule="evenodd" clip-rule="evenodd" d="M90.0547 20.0675V0H90.5564V20.0675H90.0547Z"
        fill="#CCCCCC" />
</svg>