<?xml version="1.0" encoding="UTF-8"?>
<svg id="Layer_1" data-name="Layer 1" xmlns="http://www.w3.org/2000/svg" viewBox="0 0 200 200">
  <defs>
    <style>
      .cls-1, .cls-2 {
        fill: #fff;
      }

      .cls-3, .cls-2 {
        stroke-linecap: round;
        stroke-width: .75px;
      }

      .cls-3, .cls-2, .cls-4 {
        stroke: #000;
        stroke-linejoin: round;
      }

      .cls-3, .cls-4 {
        fill: none;
      }

      .cls-5 {
        fill: #565b66;
      }

      .cls-4 {
        stroke-width: 1.5px;
      }

      .cls-6 {
        fill: #25cccc;
      }
    </style>
  </defs>
  <polyline class="cls-1" points="79.66 136.09 172.45 190 178.31 185.94 178.31 179.75 84.26 125.77"/>
  <polyline class="cls-4" points="79.66 136.09 172.45 190 178.31 185.94 178.31 179.75 84.26 125.77"/>
  <line class="cls-3" x1="178.31" y1="185.94" x2="82.13" y2="130.69"/>
  <path class="cls-5" d="m86.37,126.91l-5.29,8.94c-.93,1.58-2.66,2.51-4.49,2.42-5.25-.26-15.76-2.21-19.63-13.22-1.05-2.98-1.16-6.24-.1-9.21.74-2.09,2.05-4.14,4.37-4.57,4.7-.87,20.81.34,25.43,11.15.63,1.46.53,3.13-.28,4.5Z"/>
  <path class="cls-4" d="m86.37,126.91l-5.29,8.94c-.93,1.58-2.66,2.51-4.49,2.42-5.25-.26-15.76-2.21-19.63-13.22-1.05-2.98-1.16-6.24-.1-9.21.74-2.09,2.05-4.14,4.37-4.57,4.7-.87,20.81.34,25.43,11.15.63,1.46.53,3.13-.28,4.5Z"/>
  <g>
    <path class="cls-5" d="m89.53,20.28s-9.25,7.43-5.77,21.85c3.12,12.88,6.96,20.49,5.82,33.02,0,0,1.82-11.13,11.53-16.18,0,0-3.49,10.62,2.07,20.23,5.56,9.61-11.23,28.22-11.23,28.22,0,0,5.56-.4,7.99-4.15,0,0-2.03,8.48-11.46,15.17-11.29,8.01-26.29,8.12-38.25,1.15-8.43-4.92-16.65-13.71-17.3-29.37,0,0,4.02,2.96,11.23,3.49,0,0-12.74-24.73,5.01-48.55,0,0,.71,13.3,8.9,21.39,0,0-6.07-40.26,31.46-46.27Z"/>
    <path class="cls-4" d="m89.53,20.28s-9.25,7.43-5.77,21.85c3.12,12.88,6.96,20.49,5.82,33.02,0,0,1.82-11.13,11.53-16.18,0,0-3.49,10.62,2.07,20.23,5.56,9.61-11.23,28.22-11.23,28.22,0,0,5.56-.4,7.99-4.15,0,0-2.03,8.48-11.46,15.17-11.29,8.01-26.29,8.12-38.25,1.15-8.43-4.92-16.65-13.71-17.3-29.37,0,0,4.02,2.96,11.23,3.49,0,0-12.74-24.73,5.01-48.55,0,0,.71,13.3,8.9,21.39,0,0-6.07-40.26,31.46-46.27Z"/>
    <path class="cls-2" d="m69.12,123c-28.86-18.21-18.43-51.66-18.43-51.66,5.84,9.33,14.72,11.15,14.72,11.15-7.01-30.83,8.55-38.99,8.55-38.99,0,0-4.86,10.22,3.54,21.34,8.4,11.13,10.11,21.9,6.07,33.81,0,0,6.5-.76,13.55-13.88,0,0,2.24,18-28,38.23Z"/>
    <path class="cls-6" d="m74.66,71.01s-.81,12.04,2.23,18.81c3.03,6.78,2.53,22.05-7.79,30.75,0,0-13.45-5.87-11.94-24.78,0,0,2.73,7.79,9.61,9.51,0,0-5.46-8.6.51-16.69,5.97-8.09,7.38-17.6,7.38-17.6Z"/>
  </g>
  <path class="cls-6" d="m28.41,43.5s7.93,7.76,2.81,17.82c-5.12,10.06-2.81,15.18-2.81,15.18,0,0-9.21-5.37-6.05-13.3,3.16-7.93,7.08-8.36,6.05-19.7Z"/>
  <path class="cls-6" d="m52.1,10s4.94,4.84,1.75,11.11c-3.19,6.27-1.75,9.46-1.75,9.46,0,0-5.74-3.35-3.77-8.29,1.97-4.94,4.41-5.21,3.77-12.28Z"/>
</svg>
