<?xml version="1.0" encoding="UTF-8"?>
<svg id="Layer_1" data-name="Layer 1" xmlns="http://www.w3.org/2000/svg" viewBox="0 0 199.39 200">
  <defs>
    <style>
      .cls-1 {
        fill: #fff;
      }

      .cls-2, .cls-3 {
        opacity: .2;
      }

      .cls-4 {
        stroke-linecap: round;
        stroke-width: .75px;
      }

      .cls-4, .cls-5 {
        stroke: #000;
        stroke-linejoin: round;
      }

      .cls-4, .cls-5, .cls-6 {
        fill: none;
      }

      .cls-7, .cls-3 {
        fill: #565b66;
      }

      .cls-5 {
        stroke-width: 1.5px;
      }

      .cls-8 {
        fill: #25cccc;
      }
    </style>
  </defs>
  <g>
    <g>
      <g>
        <polyline class="cls-1" points="146.8 37.74 148.47 134.39 142.77 134.39 144.19 37.74"/>
        <path class="cls-4" d="m144.17,30.48l-1.4,103.91h5.69l-1.65-103.91c-.01-.72-.6-1.3-1.32-1.3h0c-.72,0-1.31.58-1.32,1.31Z"/>
        <polyline class="cls-1" points="88.32 37.74 89.99 134.39 84.3 134.39 85.72 37.74"/>
        <path class="cls-4" d="m85.7,30.48l-1.4,103.91h5.69l-1.65-103.91c-.01-.72-.6-1.3-1.32-1.3h0c-.72,0-1.31.58-1.32,1.31Z"/>
        <line class="cls-4" x1="88.39" y1="33.47" x2="192.14" y2="119.44"/>
        <path class="cls-1" d="m55.07,120.27l-37.69-18.92s.09-.2.24-.58c1.24-3.16,6.46-18.47-3.98-28.62l47.54,33.22,3.61,2.52s1.89,11.45-9.72,12.38Z"/>
        <path class="cls-7" d="m194.89,118.61s-8.42,8.42-10.6,14.12c-2.13,5.57-9.48,14.68-23.5,21.09-.16.08-.31.15-.47.22-.08.11-.16.21-.24.32-6.01,7.79-11.66,14.12-11.66,14.12-49.53-5.45-118.83,2.34-118.83,2.34,0-34.58-15.9-29.29-15.9-29.29-2.48-18.53-9.18-34.41-9.18-34.41l28.91,4.85,2.8,9.4s31.78,12.92,74.46,11.67c31.58-.93,62.54-8.38,76.5-12.2,4.9-1.34,7.71-2.23,7.71-2.23Z"/>
        <path d="m158.54,154.7c5.23-6.54,10.52-13.12,14.49-20.53-3.52,7.65-8.45,14.58-13.29,21.45,0,0-1.19-.91-1.19-.91h0Z"/>
        <path class="cls-5" d="m159.14,155.15c14.74-6.44,22.97-16.71,25.15-22.42,2.18-5.71,10.59-14.12,10.59-14.12,0,0-41.53,13.19-84.21,14.43-42.68,1.25-74.45-11.68-74.45-11.68l-2.8-9.4-28.92-4.85s6.7,15.89,9.19,34.42c0,0,15.89-5.3,15.89,29.28,0,0,69.31-7.79,118.84-2.34,0,0,5.04-5.91,10.72-13.33"/>
        <path d="m23.66,144.71c24.63,4.37,49.7,6.35,74.71,6.4-18.78.19-37.58-.83-56.24-3.01-6.22-.73-12.43-1.57-18.61-2.65-.47-.08-.37-.84.14-.74h0Z"/>
        <path d="m27.73,153.18c22.76,2.48,45.71,4.14,68.62,3.38-22.92,1.01-45.89-.4-68.71-2.63-.48-.05-.42-.81.09-.75h0Z"/>
        <path d="m109.82,151.81c15.96-.71,32.13-1.42,47.58-5.79-7.53,2.85-15.56,4.09-23.53,4.97-7.99.77-16.03,1.12-24.06.82h0Z"/>
        <path d="m114.93,156.2c13.12-1.25,26.78-2.4,39.66-5.08-12.85,3.69-26.34,4.83-39.66,5.08h0Z"/>
        <path d="m93.44,140.42c22.21.15,44.62-1.53,66.26-6.68,3.12-.65,6.15-1.63,9.22-2.46-24.18,8.12-50.11,10.3-75.49,9.14h0Z"/>
        <path d="m11.95,130.91c22.2,4.27,44.56,8.28,67.16,9.66-11.31-.48-22.57-1.84-33.78-3.4-11.21-1.59-22.38-3.43-33.52-5.52-.46-.09-.36-.84.15-.74h0Z"/>
        <path d="m7.64,115.05c7.77,2.34,15.78,4,23.81,5.23-8.1-.98-16.13-2.39-24.03-4.51-.48-.13-.27-.87.22-.72h0Z"/>
        <path class="cls-5" d="m64.79,107.89s1.89,11.45-9.72,12.39l-37.69-18.92s7.94-17.83-3.74-29.2l51.14,35.74"/>
        <path d="m22.4,103.8c3.02-3.04,7.29-4.13,11.33-5.09-3.81,1.14-8.05,2.52-10.75,5.57-.3.4-.92-.1-.58-.48h0Z"/>
        <path d="m19.2,102.17c2.2-2.41,4.6-4.69,7.44-6.31-2.67,1.82-4.88,4.26-6.85,6.78-.3.42-.93-.09-.58-.47h0Z"/>
        <path d="m19.19,80.53l16.26,13.11-16.72-12.52c-.4-.29.08-.91.46-.59h0Z"/>
        <path d="m55.14,120.18c.81-3.43.38-7.16-1.15-10.34,1.34,2.34,2.06,5.06,2.09,7.77.01.92-.04,1.81-.21,2.75-.04.2-.23.34-.44.3-.22-.04-.36-.27-.29-.48h0Z"/>
        <path d="m57.01,119.68c1.93-2.15,2.78-5.14,3.09-7.97-.08,2.98-.7,6.06-2.55,8.49-.34.41-.93-.15-.54-.52h0Z"/>
        <line class="cls-4" x1="38.98" y1="89.85" x2="85.66" y2="33.47"/>
        <path class="cls-1" d="m95.2,122.3c-6.25-14.46-21.48-15.17-28.94-14.56-2.61.21-4.27.58-4.27.58,11.53-20.96,5.8-60.37,5.8-60.37h40.86c.02.09.04.19.06.28,13.03,55.41-13.51,74.07-13.51,74.07Z"/>
        <path class="cls-5" d="m108.65,47.95c13.18,55.63-13.45,74.34-13.45,74.34-8.44-19.51-33.22-13.97-33.22-13.97,11.53-20.96,5.8-60.37,5.8-60.37h40.86Z"/>
        <path class="cls-1" d="m153.68,122.3c-6.36-16.39-21.99-16.93-29.31-16.2-2.4.23-3.91.61-3.91.61,11.53-23.38,5.8-67.33,5.8-67.33h40.86c13.18,62.04-13.44,82.92-13.44,82.92Z"/>
        <path class="cls-5" d="m167.12,39.38c13.18,62.04-13.45,82.92-13.45,82.92-8.44-21.76-33.22-15.58-33.22-15.58,11.53-23.38,5.8-67.34,5.8-67.34h40.86Z"/>
      </g>
      <path d="m95.97,121.23c2.38-5.33,2.73-11.43,2.4-17.21.15,1.46.27,2.94.29,4.41.07,2.96-.14,5.93-.73,8.83-.31,1.46-.68,2.89-1.29,4.3-.08.19-.3.28-.49.2-.21-.09-.29-.34-.18-.53h0Z"/>
      <path d="m101.5,114.93c2.15-6.38,2.81-13.42,1.25-20.01,1.38,4.94,1.43,10.19.62,15.24-.28,1.69-.64,3.36-1.16,5.02-.06.2-.27.31-.47.25-.21-.06-.32-.3-.24-.5h0Z"/>
      <path d="m153.34,121.39c2.38-5.33,2.73-11.43,2.4-17.21.15,1.46.27,2.94.29,4.41.07,2.96-.14,5.93-.73,8.83-.31,1.46-.68,2.89-1.29,4.3-.08.19-.3.28-.49.2-.21-.09-.29-.34-.18-.53h0Z"/>
      <path d="m158.87,115.09c2.15-6.38,2.81-13.42,1.25-20.01,1.38,4.94,1.43,10.19.62,15.24-.28,1.69-.64,3.36-1.16,5.02-.06.2-.27.31-.47.25-.21-.06-.32-.3-.24-.5h0Z"/>
      <path d="m61.86,107.97c6.32-2.98,9.72-9.97,11.91-16.29-2.04,6.58-5.2,13.72-11.66,17-.49.2-.76-.55-.25-.71h0Z"/>
      <path d="m121.7,104.8c6.32-2.98,9.72-9.97,11.91-16.29-2.04,6.58-5.2,13.72-11.66,17-.49.2-.76-.55-.25-.71h0Z"/>
    </g>
    <g>
      <circle class="cls-1" cx="42" cy="142.35" r="3"/>
      <circle class="cls-1" cx="67.69" cy="145.08" r="3"/>
      <circle class="cls-1" cx="144.76" cy="143.25" r="3"/>
      <circle class="cls-1" cx="119.07" cy="146.02" r="3"/>
      <circle class="cls-1" cx="93.38" cy="146.02" r="3"/>
    </g>
  </g>
  <g>
    <path d="m158.64,73.02c.27.76.46,1.56.51,2.36.18,3.39-2.23.54-2.75-1.67-.52-2.21-1.06-6.2-1.06-6.2,0,.22,0,1.4-.02,1.62,0,.22-.02.44-.03.66-.01.22-.03.44-.05.65-.02.18-.03.36-.06.55-.07.61-.16,1.21-.29,1.78-.02.11-.05.22-.07.33-.53,2.21-1.76,4.21-2.05,4.57-1.06,1.34-2.51,2.29-4.41,2.64-1.83-.34-3.21-1.23-4.23-2.5-.28-.35-2.27-3.42-2.51-8.31,0-.13-.02-.27-.02-.4,0-.02,0-.04,0-.07,0-.09,0-.25,0-.44,0-.52,0-1.26,0-1.4,0,0-.54,4.3-1.05,6.51s-2.94,5.07-2.75,1.67c.04-.8.24-1.6.51-2.36,0,0-2.27-2.22-3.29-3.93-.28-.48-.24-1.08.11-1.51.92-1.12,3.07-3.48,6.33-5.75.27-.19.59-.28.91-.28.29,0,.59.08.85.24.29.18.65.19.95.01h0c.73-.43,1.55-.65,2.4-.65h3.81c.84,0,1.67.22,2.4.65h0c.14.09.3.13.46.13.17,0,.34-.05.48-.14.54-.34,1.23-.32,1.76.04,3.26,2.27,5.41,4.64,6.33,5.75.35.43.4,1.03.11,1.51-1.02,1.71-3.28,3.93-3.28,3.93Z"/>
    <path class="cls-1" d="m152.58,72.18c-.04.79-.4,2.73-.14,4.62-.09.13-.18.26-.28.38-.71.89-1.57,1.54-2.58,1.96-.37.14-.77.25-1.21.33-.44-.08-.83-.19-1.19-.32-.95-.39-1.77-1-2.42-1.82-.1-.12-.19-.25-.28-.38.28-1.94-.07-3.95-.12-4.76-.01-.24.09-.47.27-.63.17-.16.27-.37.27-.59v-.42c0-.21.09-.41.24-.57l1.31-1.31c.58-.58.9-1.35.9-2.16v-3.95c0-.23.08-.44.21-.62.2-.28.54-.46.92-.46.31,0,.59.12.8.31.05.04.09.09.13.15.13.17.2.39.2.62v3.95c0,.8.32,1.58.9,2.16l1.31,1.31c.15.16.23.35.23.57v.42c0,.22.1.44.27.59.17.16.27.37.27.6v.03Z"/>
    <path class="cls-1" d="m151.1,65.59c.46-.03.73-.32,1.17-.39.44-.06.89.09,1.2.4-.4-.13-.78-.22-1.16-.16-.38.06-.81.32-1.21.16h0Z"/>
    <path class="cls-1" d="m154.32,67.5s-.31.12-.69.13c0,0-.28.81-1.22.82-.94,0-1.2-.89-1.18-1.43,0,0-.03-.34-.13-.61,0,0,.15.16.62.08.12-.02.28-.07.45-.09.2-.03.42-.04.64.02.34.09.7.35,1,.94,0,0,.21.19.51.14Z"/>
    <path d="m153.07,67.03c.34.08.48.42.48.42,0,0-.42,1.09-1.38.77s-.69-1.38-.69-1.38c0,0,.14-.08.42,0"/>
    <path class="cls-8" d="m141.8,67.02c-.14-.27-.09-.59.14-.8.4-.37,1.15-.94,2.28-1.31,1.77-.57,3.38-.68,3.32,1.12-.05,1.44-.61,2.67-1.73,3.4-.54.35-1.23.35-1.77,0-.66-.42-1.57-1.18-2.22-2.42Z"/>
    <path class="cls-6" d="m146.1,64.89c.39,0,.68.09.85.26.17.18.25.47.24.87-.03.98-.34,2.31-1.58,3.12"/>
    <g>
      <path class="cls-8" d="m142.88,68.3s-.54.46-1.27.73c0-.09,0-.25,0-.44.6-.24.96-.59.97-.6l.31.31Z"/>
      <path class="cls-8" d="m146.92,65.8l-.15-.41s3.12-1.19,5.34-4.05l.34.27c-2.3,2.96-5.4,4.14-5.53,4.19Z"/>
    </g>
    <path d="m150.94,72.22c0,.56-.58,1.04-1.41,1.27-.46-.3-.23-.75-.21-.78-.04.02-.49.27-.22.63,0,.02.02.03.04.05.04.04.1.09.17.15-.27.06-.56.09-.87.09-.35,0-.68-.04-.98-.12.06-.05.11-.09.14-.12.32-.37-.09-.63-.17-.68,0,0,.19.46-.15.76-.03-.01-.07-.02-.1-.03-.74-.24-1.24-.7-1.24-1.22,0-.78,1.12-1.41,2.5-1.41s2.5.63,2.5,1.41Z"/>
    <path d="m151.72,76.49c-.29.57-.99,1.36-1.61.64-1.14-1.18-1.95-1.42-3.16-.17-.13.12-.23.23-.39.35-.6.38-1.15-.39-1.38-.82-.06-.1-.02-.22.07-.28.1-.06.23-.02.28.09.15.25.35.51.56.63.11.06.16.06.22.01.06-.04.25-.23.32-.3,1.36-1.44,2.51-1.22,3.79.16.14.12.17.23.37.12.21-.12.41-.4.56-.65.14-.24.51-.03.37.22h0Z"/>
    <path d="m149.68,78.02h-2.49c-.27,0-.53-.12-.68-.33-.19-.26-.24-.53-.24-.54-.01-.09.04-.17.13-.18.09-.01.17.04.18.13,0,0,.04.21.18.4.09.13.25.2.42.2h2.49c.17,0,.33-.07.42-.2.14-.19.18-.4.18-.41.01-.09.09-.15.18-.13.09.01.14.09.13.18,0,.01-.05.29-.24.54-.15.21-.41.33-.68.33Z"/>
    <rect x="148.13" y="74.58" width=".47" height="1.3"/>
    <path d="m149.52,74.01c-.1.21-.47.39-.8.55-.22.11-.48.11-.7,0-.33-.17-.71-.34-.81-.55-.1-.21.09-.37.24-.49.06-.05.11-.09.14-.12.32-.37-.09-.63-.17-.68l1.67.63s.02.03.04.05c.04.04.1.09.17.15h0c.15.12.3.27.21.47Z"/>
    <path class="cls-1" d="m149.16,71.67c.56-.2,1.41.25,1.22.92-.22-.59-.68-.72-1.22-.92h0Z"/>
    <path class="cls-1" d="m153.07,67.03c0,.41-.27.74-.59.74s-.59-.33-.59-.74c0-.27.11-.5.28-.63.2-.03.42-.04.64.02.16.13.26.36.26.62Z"/>
  </g>
  <path class="cls-3" d="m153.68,122.3c-6.36-16.39-21.99-16.93-29.31-16.2,2.11-.79,4.2-1.65,6.26-2.59,8.54-3.92,16.54-9.36,22.3-16.79,4.99-6.44,8.14-14.17,10.04-22.1,1.91-7.92,2.62-16.08,3.15-24.22.02-.42.27-.77.63-1.02h.37c13.18,62.04-13.44,82.92-13.44,82.92Z"/>
  <path class="cls-3" d="m95.2,122.3c-6.25-14.46-21.48-15.17-28.94-14.56-.11-.42-.22-.84-.33-1.26,12.79-2.59,24.49-10.21,32.04-20.86,7.54-10.64,10.85-24.21,9.06-37.13.59-.19,1.15-.27,1.68-.26,13.03,55.41-13.51,74.07-13.51,74.07Z"/>
  <g>
    <path d="m100.62,82.27c.27.76.46,1.56.51,2.36.18,3.39-2.23.54-2.75-1.67-.52-2.21-1.06-6.2-1.06-6.2,0,.22,0,1.4-.02,1.62,0,.22-.02.44-.03.66-.01.22-.03.44-.05.65-.02.18-.03.36-.06.55-.07.61-.16,1.21-.29,1.78-.02.11-.05.22-.07.33-.53,2.21-1.76,4.21-2.05,4.57-1.06,1.34-2.51,2.29-4.41,2.64-1.83-.34-3.21-1.23-4.23-2.5-.28-.35-2.27-3.42-2.51-8.31,0-.13-.02-.27-.02-.4,0-.02,0-.04,0-.07,0-.09,0-.25,0-.44,0-.52,0-1.26,0-1.4,0,0-.54,4.3-1.05,6.51s-2.94,5.07-2.75,1.67c.04-.8.24-1.6.51-2.36,0,0-2.27-2.22-3.29-3.93-.28-.48-.24-1.08.11-1.51.92-1.12,3.07-3.48,6.33-5.75.27-.19.59-.28.91-.28.29,0,.59.08.85.24.29.18.65.19.95.01h0c.73-.43,1.55-.65,2.4-.65h3.81c.84,0,1.67.22,2.4.65h0c.14.09.3.13.46.13.17,0,.34-.05.48-.14.54-.34,1.23-.32,1.76.04,3.26,2.27,5.41,4.64,6.33,5.75.35.43.4,1.03.11,1.51-1.02,1.71-3.28,3.93-3.28,3.93Z"/>
    <path class="cls-1" d="m94.56,81.43c-.04.79-.4,2.73-.14,4.62-.09.13-.18.26-.28.38-.71.89-1.57,1.54-2.58,1.96-.37.14-.77.25-1.21.33-.44-.08-.83-.19-1.19-.32-.95-.39-1.77-1-2.42-1.82-.1-.12-.19-.25-.28-.38.28-1.94-.07-3.95-.12-4.76-.01-.24.09-.47.27-.63.17-.16.27-.37.27-.59v-.42c0-.21.09-.41.24-.57l1.31-1.31c.58-.58.9-1.35.9-2.16v-3.95c0-.23.08-.44.21-.62.2-.28.54-.46.92-.46.31,0,.59.12.8.31.05.04.09.09.13.15.13.17.2.39.2.62v3.95c0,.8.32,1.58.9,2.16l1.31,1.31c.15.16.23.35.23.57v.42c0,.22.1.44.27.59.17.16.27.37.27.6v.03Z"/>
    <path class="cls-1" d="m93.08,74.84c.46-.03.73-.32,1.17-.39.44-.06.89.09,1.2.4-.4-.13-.78-.22-1.16-.16-.38.06-.81.32-1.21.16h0Z"/>
    <path class="cls-1" d="m96.3,76.75s-.31.12-.69.13c0,0-.28.81-1.22.82-.94,0-1.2-.89-1.18-1.43,0,0-.03-.34-.13-.61,0,0,.15.16.62.08.12-.02.28-.07.45-.09.2-.03.42-.04.64.02.34.09.7.35,1,.94,0,0,.21.19.51.14Z"/>
    <path d="m95.06,76.28c.34.08.48.42.48.42,0,0-.42,1.09-1.38.77s-.69-1.38-.69-1.38c0,0,.14-.08.42,0"/>
    <path class="cls-8" d="m83.78,76.27c-.14-.27-.09-.59.14-.8.4-.37,1.15-.94,2.28-1.31,1.77-.57,3.38-.68,3.32,1.12-.05,1.44-.61,2.67-1.73,3.4-.54.35-1.23.35-1.77,0-.66-.42-1.57-1.18-2.22-2.42Z"/>
    <path class="cls-6" d="m88.08,74.14c.39,0,.68.09.85.26.17.18.25.47.24.87-.03.98-.34,2.31-1.58,3.12"/>
    <g>
      <path class="cls-8" d="m84.86,77.55s-.54.46-1.27.73c0-.09,0-.25,0-.44.6-.24.96-.59.97-.6l.31.31Z"/>
      <path class="cls-8" d="m88.9,75.05l-.15-.41s3.12-1.19,5.34-4.05l.34.27c-2.3,2.96-5.4,4.14-5.53,4.19Z"/>
    </g>
    <path d="m92.92,81.48c0,.56-.58,1.04-1.41,1.27-.46-.3-.23-.75-.21-.78-.04.02-.49.27-.22.63,0,.02.02.03.04.05.04.04.1.09.17.15-.27.06-.56.09-.87.09-.35,0-.68-.04-.98-.12.06-.05.11-.09.14-.12.32-.37-.09-.63-.17-.68,0,0,.19.46-.15.76-.03-.01-.07-.02-.1-.03-.74-.24-1.24-.7-1.24-1.22,0-.78,1.12-1.41,2.5-1.41s2.5.63,2.5,1.41Z"/>
    <path d="m93.7,85.74c-.29.57-.99,1.36-1.61.64-1.14-1.18-1.95-1.42-3.16-.17-.13.12-.23.23-.39.35-.6.38-1.15-.39-1.38-.82-.06-.1-.02-.22.07-.28.1-.06.23-.02.28.09.15.25.35.51.56.63.11.06.16.06.22.01.06-.04.25-.23.32-.3,1.36-1.44,2.51-1.22,3.79.16.14.12.17.23.37.12.21-.12.41-.4.56-.65.14-.24.51-.03.37.22h0Z"/>
    <path d="m91.66,87.27h-2.49c-.27,0-.53-.12-.68-.33-.19-.26-.24-.53-.24-.54-.01-.09.04-.17.13-.18.09-.01.17.04.18.13,0,0,.04.21.18.4.09.13.25.2.42.2h2.49c.17,0,.33-.07.42-.2.14-.19.18-.4.18-.41.01-.09.09-.15.18-.13.09.01.14.09.13.18,0,.01-.05.29-.24.54-.15.21-.41.33-.68.33Z"/>
    <rect x="90.11" y="83.83" width=".47" height="1.3"/>
    <path d="m91.5,83.26c-.1.21-.47.39-.8.55-.22.11-.48.11-.7,0-.33-.17-.71-.34-.81-.55-.1-.21.09-.37.24-.49.06-.05.11-.09.14-.12.32-.37-.09-.63-.17-.68l1.67.63s.02.03.04.05c.04.04.1.09.17.15h0c.15.12.3.27.21.47Z"/>
    <path class="cls-1" d="m91.14,80.92c.56-.2,1.41.25,1.22.92-.22-.59-.68-.72-1.22-.92h0Z"/>
    <path class="cls-1" d="m95.06,76.28c0,.41-.27.74-.59.74s-.59-.33-.59-.74c0-.27.11-.5.28-.63.2-.03.42-.04.64.02.16.13.26.36.26.62Z"/>
  </g>
  <path class="cls-3" d="m55.07,120.27l-37.69-18.92s.09-.2.24-.58c10.32,6.35,22.85,9.12,34.87,7.51,1.32-.17,2.65-.41,3.8-1.06,1.15-.66,2.09-1.83,2.14-3.15.97.43,1.88.85,2.75,1.3l3.61,2.52s1.89,11.45-9.72,12.38Z"/>
  <path class="cls-2" d="m194.89,118.61s-8.42,8.42-10.6,14.12c-2.13,5.57-9.48,14.68-23.5,21.09,4.27-3.21,7.94-7.22,10.77-11.75,2.62-4.17,4.52-8.76,7.18-12.91,2.15-3.35,4.95-6.49,8.44-8.32,4.9-1.34,7.71-2.23,7.71-2.23Z"/>
</svg>