<?xml version="1.0" encoding="UTF-8"?>
<svg id="Layer_1" data-name="Layer 1" xmlns="http://www.w3.org/2000/svg" viewBox="0 0 200 200">
  <defs>
    <style>
      .cls-1 {
        fill: #fff;
      }

      .cls-2 {
        stroke-dasharray: 0 0 0 0 3.97 3.97 0 0;
      }

      .cls-2, .cls-3 {
        stroke-linecap: round;
        stroke-width: .75px;
      }

      .cls-2, .cls-3, .cls-4 {
        fill: none;
        stroke: #000;
        stroke-linejoin: round;
      }

      .cls-5, .cls-6 {
        opacity: .2;
      }

      .cls-7, .cls-6 {
        fill: #565b66;
      }

      .cls-4 {
        stroke-width: 1.5px;
      }

      .cls-8 {
        fill: #25cccc;
      }
    </style>
  </defs>
  <g>
    <path class="cls-1" d="m190,58.2v117.94h-46.61l-3.9-3.9-3.9,3.9h-67.73l-4.38-4.39-4.39,4.39h-31.98c-9.46,0-17.12-7.67-17.12-17.12,0-4.72,1.91-9.01,5.01-12.11s7.37-5.01,12.11-5.01h.31v-30.39l-5-4.99,4.94-4.93v-43.39h18.61l3.86,4.17,4.3-4.17h52.38l4.17,4.02,4.04-4.02h42.27l4.1,4.08,4.23-4.08h24.69Z"/>
    <path class="cls-7" d="m27.42,111.51v30.39h-.31c-4.73,0-9.01,1.91-12.11,5.01s-5.01,7.38-5.01,12.11V41.17c0-4.77,1.93-9.1,5.07-12.23,3.13-3.14,7.45-5.07,12.22-5.07v10.23l-4.68,4.69,4.75,4.75v58.05l-4.94,4.93,5,4.99Z"/>
    <path class="cls-4" d="m27.36,58.2h18.62l3.86,4.16,4.3-4.16h52.38l4.16,4.02,4.04-4.02h42.27l4.1,4.08,4.22-4.08h24.69v117.93h-46.61l-3.9-3.9-3.9,3.9h-67.73l-4.39-4.39-4.39,4.39h-31.97c-9.45,0-17.11-7.66-17.11-17.11h0c0-9.45,7.66-17.11,17.11-17.11h.3s0-30.39,0-30.39l-4.99-4.99,4.93-4.93v-58.04l-4.75-4.75,4.69-4.69v-10.23h0c-9.55,0-17.3,7.74-17.3,17.3v117.85"/>
    <path class="cls-3" d="m28.18,75.64h6.83c2.36,0,4.62-.87,6.47-2.33,1.4-1.11,3.36-2.09,5.59-1.6,3.15.69,4.41,2.39,6.67,4.02,1.59,1.15,3.78.93,5.17-.45,1.14-1.12,3.06-2.34,6.21-2.92,4.69-.86,7.4-2.45,9.36-4.64,1.22-1.36,3.25-1.73,4.84-.82.88.5,1.98.96,3.28,1.19,3.9.7,8.04,2.44,14.98,1.5,6.94-.93,12.75,2.19,16.4-1.22s4.55-5.2,9.5-4.67,8.04,2.23,8.89,5.89c.85,3.65.77,4.87,8.53,3.45,0,0,4.14-2.07,6.33.45,2.19,2.52,1.75,6.09,8.4,2.6s15.92-4.63,16.81,7.8c.89,12.42-8.36,17.38-20.06,12.83-2.75-1.07-5.38-1.99-7.8-2.77s-4.86-.32-6.8,1.17l-.62.47c-2.34,1.8-5.52,2.05-8.09.6-1.21-.68-2.58-1.53-4.02-2.54-1.27-.9-2.88-1.22-4.39-.82-1.33.35-3.06.69-4.7.66-3.35-.06-7.35-1.16-13.85,9.81,0,0-2.78,4.57,2.64,11.15,3.52,4.28,5.71,5.51,7.83,5.99,1.79.4,3.1,1.88,3.25,3.7s.93,3.78,3.54,4.49c5.12,1.4,6.27-.06,7.43-4.51,1.16-4.45,6.03-3.96,7.13-9.74.78-4.13,3.64-3.2,5.66-1.27,1.36,1.3,3.49,1.3,4.8-.06.89-.93,1.81-2.04,2.46-3.24,1.77-3.23,7.43-2.13,16.08,2.13s14.07,6.21,11.69,11.51c-2.38,5.3-8.75,9.07-16.71,10.37-4.44.73-7.67,3.55-9.66,5.91-1.41,1.67-1.97,3.91-1.42,6.02.68,2.65.85,6.61-3.46,8.21-6.74,2.52-4.55,7.23-8.36,12.99-3.82,5.77-9.66-6.5-12.75-3.57s-5.77,8.28-8.93,3.49c-3.17-4.79-7.51-7.39-13.34-5.12s-2.66,9.26-16.38,7.8c-13.72-1.46-21.11-4.71-25.09-12.26-3.98-7.55-17.95-2.92-20.55-15.92s4.71-18.61-2.44-24.69c-2.79-2.37-5.41-3.4-7.58-3.77"/>
    <path class="cls-3" d="m67.74,143.47c.22,1.8.44,3.62,1.04,5.33s1.62,3.33,3.13,4.33c2.1,1.39,5.06,1.32,7.11-.15,1.42-1.02,2.58-2.71,4.33-2.8,1.64-.09,2.92,1.28,4.18,2.33,1.6,1.34,3.53,2.32,5.6,2.61,2.99.43,6.15-.66,8.25-2.83,2.1-2.17,3.07-5.37,2.53-8.34-.33-1.82-1.18-3.51-2.02-5.16-.68-1.35-1.37-2.69-2.05-4.04-.72-1.42-1.48-2.88-2.75-3.84-.96-.72-2.18-1.1-3.38-1.04-1.85.09-3.49,1.13-5.22,1.77s-3.96.75-5.16-.65c-1.06-1.24-.93-3.22-2.09-4.36-1.32-1.29-3.59-.77-5.03.39-1.67,1.35-2.8,3.42-4.77,4.25-.85.36-1.79.45-2.69.67-2.35.57-2.86,1.89-2.16,3.93.81,2.37.86,5.11,1.16,7.61Z"/>
    <polyline class="cls-3" points="46.07 90.66 41.42 87.29 36.78 90.66"/>
    <polyline class="cls-3" points="57.14 86.71 52.49 83.34 47.84 86.71"/>
    <polyline class="cls-3" points="67.93 90.33 63.28 86.96 58.63 90.33"/>
    <polyline class="cls-3" points="66.44 97.25 61.79 93.88 57.14 97.25"/>
    <polyline class="cls-3" points="55.37 94.88 50.72 91.51 46.07 94.88"/>
    <polyline class="cls-3" points="50.1 108.96 45.45 105.59 40.8 108.96"/>
    <polyline class="cls-3" points="67.45 113.74 62.8 110.37 58.15 113.74"/>
    <path class="cls-3" d="m126.1,105.15c-.24.72-.7,1.42-1.39,1.75-1.74.85-3.71-.86-5.63-.67-1.71.17-3.08,1.82-4.79,1.71-1.37-.09-2.46-1.39-2.62-2.76-.02-.2-.03-.42-.02-.66.13-3.59,3.07-6.44,6.65-6.72.96-.07,1.92-.01,2.8.18,1.6.36,3.13,1.2,4.12,2.51.99,1.31,1.4,3.09.88,4.66Z"/>
    <path class="cls-8" d="m161.86,117.96c0,.69-.41,1.35-1.09,1.64-1.38.59-3.44,1.67-5.62,3.51.88.98,1.76,2.03,2.63,3.13.8,1,.64,2.48-.39,3.27-.95.75-2.34.49-2.98-.56-.63-1.03-1.35-2.01-2.12-2.94-1.57,1.9-3.05,4.27-4.19,7.24-.25.63-.91,1-1.58.88-.69-.12-1.19-.72-1.19-1.4,0-.06,0-.11,0-.16.21-1.98,1.02-5.88,4.08-9.58-1.48-1.4-2.88-2.54-3.92-3.32-.89-.66-1.07-1.92-.4-2.81.64-.87,1.88-1.08,2.76-.45,1.5,1.06,2.99,2.31,4.46,3.73,1.87-1.48,4.22-2.83,7.19-3.87.87-.31,1.86.14,2.21,1,.09.22.13.46.13.67Z"/>
    <g>
      <path class="cls-3" d="m143.3,125.87s-.77,0-1.99.16"/>
      <path class="cls-2" d="m137.44,126.87c-3.24,1-7.1,2.98-9.65,6.95-3.43,5.34-4.26,18.07,1.58,22.09,3.83,2.63,6.34,2.9,10.9,3.11,5.41.25,10.44-2.66,12.99-7.44,3.05-5.73,8-12.74,14.6-14.67,11.69-3.41,15.71-7.55,12.55-25.82-3.17-18.27-17.78-25.59-38-25.34-20.22.25-27.04-17-53.11-3.63-24.1,12.36-1.56,23.5-15.72,35.89-2.08,1.82-4.66,2.96-7.38,3.46-5.43,1-16.39,4.42-20.2,16.02"/>
      <path class="cls-3" d="m45.99,137.5c-.2.62-.39,1.26-.55,1.92"/>
    </g>
    <path class="cls-3" d="m160.49,167.3c2.4,1.77,6.19,1.22,7.98-1.16.8-1.05,1.32-2.46,2.56-2.93,1.14-.43,2.41.14,3.38.87s1.84,1.65,2.99,2.06c1.97.7,4.23-.39,5.45-2.09,1.21-1.7,1.57-3.86,1.66-5.95.16-3.69-.39-7.4-1.63-10.88-.45-1.26-1.06-2.58-2.21-3.25-.62-.37-1.44-.43-2.12-.22-.89.28-1.87.25-2.69-.19-1.52-.82-3.6-.74-5.24,0-2.27,1.03-3.96,2.98-5.83,4.63-1.35,1.19-2.85,2.26-3.9,3.73-1.76,2.47-1.13,5.3-2.08,7.98s-.72,5.63,1.68,7.4Z"/>
    <polygon class="cls-8" points="98.2 122.23 96.35 122.23 96.35 123.94 95.32 123.94 95.32 122.23 93.47 122.23 95.84 115.59 98.2 122.23"/>
    <polygon class="cls-8" points="58.6 145.45 56.75 145.45 56.75 147.15 55.71 147.15 55.71 145.45 53.87 145.45 56.23 138.81 58.6 145.45"/>
    <polygon class="cls-8" points="85.16 164.96 83.32 164.96 83.32 166.67 82.28 166.67 82.28 164.96 80.43 164.96 82.8 158.33 85.16 164.96"/>
    <polygon class="cls-8" points="176.15 155.3 174.3 155.3 174.3 157.01 173.27 157.01 173.27 155.3 171.42 155.3 173.79 148.66 176.15 155.3"/>
    <polygon class="cls-8" points="93.94 96.42 92.1 96.42 92.1 98.12 91.06 98.12 91.06 96.42 89.21 96.42 91.58 89.78 93.94 96.42"/>
    <polygon class="cls-8" points="108.2 88.76 106.36 88.76 106.36 90.46 105.32 90.46 105.32 88.76 103.47 88.76 105.84 82.12 108.2 88.76"/>
    <polygon class="cls-8" points="91.92 117.49 90.41 117.49 90.41 118.88 89.56 118.88 89.56 117.49 88.05 117.49 89.99 112.06 91.92 117.49"/>
    <polygon class="cls-8" points="107.77 129.36 106.26 129.36 106.26 130.76 105.41 130.76 105.41 129.36 103.9 129.36 105.84 123.94 107.77 129.36"/>
    <polygon class="cls-8" points="98.22 107.24 96.36 107.24 96.36 108.96 95.31 108.96 95.31 107.24 93.44 107.24 95.84 100.53 98.22 107.24"/>
    <path class="cls-6" d="m190,171.38v4.75h-46.61l-3.9-3.9-3.9,3.9h-67.73l-4.38-4.39-4.39,4.39h-31.98c-9.46,0-17.12-7.67-17.12-17.12,0-4.72,1.91-9.01,5.01-12.11.78-.78,1.65-1.5,2.57-2.1-2.3,2.79-3.67,6.32-3.67,10.15,0,9.06,7.66,16.42,17.12,16.42h31.98l4.39-4.21,4.38,4.21h67.73l3.9-3.74,3.9,3.74h42.71Z"/>
  </g>
  <path class="cls-5" d="m27.29,23.87v1.15c-2.28.87-4.34,2.21-6.03,3.92-3.14,3.14-5.07,7.46-5.07,12.23v104.67c-.41.34-.8.69-1.18,1.07-3.1,3.1-5.01,7.38-5.01,12.11V41.17c0-4.77,1.93-9.1,5.07-12.23,3.13-3.14,7.45-5.07,12.22-5.07Z"/>
</svg>